# xmcd
#
# Track frame offsets: 
#        150
#        9767
#        22102
#        33202
#        44370
#        56510
#        68170
#        79277
#        89995
#        101455
#        112757
#        124662
#        134805
#        145590
#        154765
#        165952
#        177007
#        189822
#        198342
#        208345
#        218207
#
# Disc length: 3024 seconds
#
# Revision: 3
# Processed by: cddbd v1.5PL3 Copyright (c) Steve Scherf et al.
# Submitted via: ExactAudioCopy v0.95a4
#
DISCID=1c0bce15
DTITLE=Buck Owens - The Buck Owens Collection (1959-1990) [disc 1]
DYEAR=1992
DGENRE=country
TTITLE0=Second Fiddle
TTITLE1=Under Your Spell Again
TTITLE2=Above And Beyond
TTITLE3=Excuse Me (I Think I've Got A Heartache)
TTITLE4=Foolin' Around
TTITLE5=Loose Talk
TTITLE6=Mental Cruelty
TTITLE7=Under The Influence Of Your Love
TTITLE8=Nobody's Fool But Yours
TTITLE9=Save The Last Dance For Me
TTITLE10=Kickin' Our Hearts Around
TTITLE11=You're For Me
TTITLE12=Act Naturally
TTITLE13=Love's Gonna Live Here
TTITLE14=My Heart Skips A Beat
TTITLE15=Together Again
TTITLE16=Close Up The Honky Tonks
TTITLE17=Hello Trouble
TTITLE18=A-11
TTITLE19=I Don't Care (Just As Long As You Love Me)
TTITLE20=Buck's Polka
EXTD=
EXTT0=
EXTT1=
EXTT2=
EXTT3=
EXTT4=
EXTT5=with Rose Maddox
EXTT6=with Rose Maddox
EXTT7=
EXTT8=
EXTT9=
EXTT10=
EXTT11=
EXTT12=
EXTT13=
EXTT14=
EXTT15=
EXTT16=
EXTT17=
EXTT18=
EXTT19=
EXTT20=
PLAYORDER=
